<svg xmlns="http://www.w3.org/2000/svg" version="1.1" xmlns:xlink="http://www.w3.org/1999/xlink" xmlns:svgjs="http://svgjs.dev/svgjs" width="2000" height="1500" viewBox="0 0 2000 1500"><rect width="2000" height="1500" fill="#ffffff"></rect><g transform="matrix(0.75,0,0,0.75,249.67638483964993,0.05154664723022506)"><svg viewBox="0 0 343 343" data-background-color="#ffffff" preserveAspectRatio="xMidYMid meet" height="1999" width="2000" xmlns="http://www.w3.org/2000/svg" xmlns:xlink="http://www.w3.org/1999/xlink"><g id="tight-bounds" transform="matrix(1,0,0,1,0.0740000000000407,0.07400000000001228)"><svg viewBox="0 0 342.85155851775386 342.85155851775386" height="342.85155851775386" width="342.85155851775386"><g><svg></svg></g><g><svg viewBox="0 0 342.85155851775386 342.85155851775386" height="342.85155851775386" width="342.85155851775386"><g><path d="M0 171.426c0-94.676 76.75-171.426 171.426-171.426 94.676 0 171.426 76.75 171.426 171.426 0 94.676-76.75 171.426-171.426 171.426-94.676 0-171.426-76.75-171.426-171.426zM171.426 338.265c92.143 0 166.839-74.697 166.839-166.839 0-92.143-74.697-166.839-166.839-166.84-92.143 0-166.839 74.697-166.84 166.84 0 92.143 74.697 166.839 166.84 166.839z" data-fill-palette-color="tertiary" fill="#000000" stroke="transparent"></path><ellipse rx="164.56874808852186" ry="164.56874808852186" cx="171.42577925887693" cy="171.42577925887693" fill="#000000" stroke="transparent" stroke-width="0" fill-opacity="1" data-fill-palette-color="tertiary"></ellipse></g><g transform="matrix(1,0,0,1,64.84655864529837,102.55997052996857)"><svg viewBox="0 0 213.1584412271571 137.73161745781672" height="137.73161745781672" width="213.1584412271571"><g><svg viewBox="0 0 213.1584412271571 137.73161745781672" height="137.73161745781672" width="213.1584412271571"><g><svg viewBox="0 0 213.1584412271571 137.73161745781672" height="137.73161745781672" width="213.1584412271571"><g id="textblocktransform"><svg viewBox="0 0 213.1584412271571 137.73161745781672" height="137.73161745781672" width="213.1584412271571" id="textblock"><g><svg viewBox="0 0 213.1584412271571 50.8581562105143" height="50.8581562105143" width="213.1584412271571"><g transform="matrix(1,0,0,1,0,0)"><svg width="213.1584412271571" viewBox="2.03 -35.51044921875 150.87045581817625 36.00044921875" height="50.8581562105143" data-palette-color="#ffffff"><g transform="matrix(1,0,0,1,0,0)"><g><svg width="16.860303878784176" viewBox="1.78 -36.36 74.21 36.36" height="8.2607421875" data-palette-color="#ffffff" id="scriptelement" x="136.04015193939208" y="-35.51044921875"><path d="M12.91-30.02L1.78-30.02 1.78-36.36 31.64-36.36 31.64-30.02 20.51-30.02 20.51 0 12.91 0 12.91-30.02ZM36.57 0L36.57-36.36 46.06-36.36 56.07-11.93 56.5-11.93 66.51-36.36 75.99-36.36 75.99 0 68.53 0 68.53-23.67 68.23-23.67 58.82-0.18 53.74-0.18 44.33-23.76 44.03-23.76 44.03 0 36.57 0Z" opacity="1" transform="matrix(1,0,0,1,0,0)" fill="#ffffff" class="undefined-123" data-fill-palette-color="quaternary" id="tk-123"></path></svg></g></g><path d="M37.04-35.01L37.04-23.29Q37.04-21.12 36.49-19.41 35.94-17.7 35.03-16.39 34.13-15.09 32.92-14.16 31.71-13.23 30.42-12.63 29.13-12.04 27.8-11.77 26.46-11.5 25.29-11.5L25.29-11.5 22.73-11.5 22.73 0 16.33 0 16.33-11.5 13.79-11.5Q12.62-11.5 11.29-11.77 9.96-12.04 8.65-12.63 7.35-13.23 6.15-14.16 4.96-15.09 4.04-16.39 3.13-17.7 2.58-19.42 2.03-21.14 2.03-23.29L2.03-23.29 2.03-35.01 8.37-35.01 8.37-23.29Q8.37-22.05 8.76-21.06 9.16-20.07 9.86-19.36 10.57-18.65 11.58-18.27 12.6-17.9 13.84-17.9L13.84-17.9 25.29-17.9Q26.2-18.04 27.15-18.27 28.1-18.51 28.88-19.07 29.66-19.63 30.18-20.63 30.69-21.63 30.69-23.29L30.69-23.29 30.69-35.01 37.04-35.01ZM83.49-32.3L83.49 0 77.1 0 77.1-20.85 65.84-1.05Q65.43-0.29 64.68 0.1 63.94 0.49 63.08 0.49L63.08 0.49Q62.25 0.49 61.53 0.1 60.81-0.29 60.4-1.05L60.4-1.05 49.09-20.85 49.09 0 42.75 0 42.75-32.3Q42.75-33.4 43.39-34.25 44.04-35.11 45.09-35.4L45.09-35.4Q45.6-35.52 46.12-35.49 46.63-35.45 47.1-35.27 47.58-35.08 47.97-34.75 48.36-34.42 48.63-33.96L48.63-33.96 63.08-8.84 77.54-33.96Q78.1-34.89 79.09-35.28 80.08-35.67 81.15-35.4L81.15-35.4Q82.18-35.11 82.83-34.25 83.49-33.4 83.49-32.3L83.49-32.3ZM127.61-20.85L127.61-14.16Q127.61-10.96 126.51-8.28 125.41-5.59 123.46-3.64 121.5-1.68 118.83-0.6 116.16 0.49 113.01 0.49L113.01 0.49 104.41 0.49Q101.26 0.49 98.58-0.6 95.89-1.68 93.94-3.64 91.99-5.59 90.88-8.28 89.77-10.96 89.77-14.16L89.77-14.16 89.77-20.85Q89.77-24.02 90.88-26.72 91.99-29.42 93.94-31.36 95.89-33.3 98.58-34.4 101.26-35.5 104.41-35.5L104.41-35.5 113.01-35.5Q116.16-35.5 118.83-34.4 121.5-33.3 123.46-31.36 125.41-29.42 126.51-26.72 127.61-24.02 127.61-20.85L127.61-20.85ZM121.26-14.16L121.26-20.85Q121.26-22.73 120.66-24.26 120.06-25.78 118.98-26.87 117.89-27.95 116.36-28.55 114.84-29.15 113.01-29.15L113.01-29.15 104.41-29.15Q102.56-29.15 101.03-28.55 99.51-27.95 98.41-26.87 97.31-25.78 96.71-24.26 96.11-22.73 96.11-20.85L96.11-20.85 96.11-14.16Q96.11-12.28 96.71-10.75 97.31-9.23 98.41-8.14 99.51-7.06 101.03-6.46 102.56-5.86 104.41-5.86L104.41-5.86 112.96-5.86Q114.81-5.86 116.34-6.46 117.87-7.06 118.96-8.14 120.06-9.23 120.66-10.75 121.26-12.28 121.26-14.16L121.26-14.16Z" opacity="1" transform="matrix(1,0,0,1,0,0)" fill="#ffffff" class="wordmark-text-0" data-fill-palette-color="quaternary" id="text-0"></path></svg></g></svg></g><g transform="matrix(1,0,0,1,0,74.87093638162105)"><svg viewBox="0 0 213.1584412271571 62.86068107619566" height="62.86068107619566" width="213.1584412271571"><path d="M213.158 0l-10.476 31.43 10.476 31.431h-213.158l10.477-31.431-10.477-31.43z" data-fill-palette-color="tertiary" opacity="1" fill="#000000"></path><g transform="matrix(1,0,0,1,64.6772394486556,12.006390085553376)"><svg width="83.8039623298459" viewBox="4.69 -38.82 83.73 38.82" height="38.84790090508891" data-palette-color="#ffffff"><path d="M4.69-6.2L4.69-19.36Q4.69-20.65 5.05-21.78 5.42-22.9 6.04-23.74 6.67-24.58 7.52-25.07 8.37-25.56 9.33-25.56L9.33-25.56 20.61-25.56 20.61-38.82 26.42-38.82 26.42-4.17 31.05-4.17Q30.96-3.32 30.58-2.55 30.2-1.78 29.63-1.22 29.05-0.66 28.32-0.33 27.59 0 26.78 0L26.78 0 20.61 0 20.61-2.66Q19.95-1.42 18.92-0.71 17.9 0 16.75 0L16.75 0 9.33 0Q8.37 0 7.52-0.49 6.67-0.98 6.04-1.82 5.42-2.66 5.05-3.78 4.69-4.91 4.69-6.2L4.69-6.2ZM10.5-4.17L20.61-4.17 20.61-21.39 10.5-21.39 10.5-4.17ZM35.81-6.2L35.81-19.36Q35.81-20.65 36.18-21.78 36.55-22.9 37.17-23.74 37.79-24.58 38.64-25.07 39.5-25.56 40.45-25.56L40.45-25.56 53.42-25.56Q54.37-25.56 55.21-25.07 56.05-24.58 56.69-23.74 57.32-22.9 57.69-21.78 58.05-20.65 58.05-19.36L58.05-19.36 58.05-11.23 41.65-11.23 41.65-4.17 59.57-4.17Q59.47-3.32 59.09-2.55 58.71-1.78 58.14-1.22 57.57-0.66 56.83-0.33 56.1 0 55.3 0L55.3 0 40.45 0Q39.5 0 38.64-0.49 37.79-0.98 37.17-1.82 36.55-2.66 36.18-3.78 35.81-4.91 35.81-6.2L35.81-6.2ZM41.65-14.65L52.22-14.65 52.22-21.39 41.65-21.39 41.65-14.65ZM72.09 0L63.25-25.56 69.18-25.56 75.85-4.1 82.51-25.56 88.42-25.56 79.56 0 72.09 0Z" opacity="1" transform="matrix(1,0,0,1,0,0)" fill="#ffffff" class="slogan-text-1" data-fill-palette-color="quaternary" id="text-1"></path></svg></g></svg></g></svg></g></svg></g></svg></g></svg></g></svg></g><defs></defs></svg><rect width="342.85155851775386" height="342.85155851775386" fill="none" stroke="none" visibility="hidden"></rect></g></svg></g></svg>